<svg id="Layer_1" data-name="Layer 1" xmlns="http://www.w3.org/2000/svg" viewBox="0 0 24 24"><defs><style>.cls-1{fill:#3d6666;}</style></defs><path class="cls-1" d="M14.81,5.92V3.56A.56.56,0,0,0,14.25,3H9.75a.56.56,0,0,0-.56.56V5.92A4.05,4.05,0,0,0,6.38,10,28,28,0,0,0,7,16.35a17,17,0,0,1,.46,3.57A1.09,1.09,0,0,0,8.57,21h6.86a1.08,1.08,0,0,0,1.07-1.09A19.45,19.45,0,0,1,17,15.59,25,25,0,0,0,17.62,10,4,4,0,0,0,14.81,5.92Zm-6.19,14a18,18,0,0,0-.48-3.76,26.56,26.56,0,0,1-.63-5.81h.56A27.9,27.9,0,0,0,8.69,16a21.71,21.71,0,0,1,.45,2.79.55.55,0,0,0,.56.51h4.58a.55.55,0,0,0,.56-.53,23.45,23.45,0,0,1,.51-3.53.55.55,0,0,0-.43-.66.57.57,0,0,0-.67.44,25.78,25.78,0,0,0-.49,3.16H10.21c-.1-.89-.26-1.66-.41-2.4a27.43,27.43,0,0,1-.61-5.48h7.3a24,24,0,0,1-.59,5.06,20.82,20.82,0,0,0-.53,4.51ZM13.69,5.81H11.44V4.12h2.25Zm-2.81,0h-.57V4.12h.57ZM10,6.94h4A2.61,2.61,0,0,1,16.4,9.19H7.6A2.61,2.61,0,0,1,10,6.94Z"/><rect class="cls-1" x="8.63" y="8.06" width="6.75" height="0.56"/></svg>