<svg id="Layer_1" data-name="Layer 1" xmlns="http://www.w3.org/2000/svg" viewBox="0 0 24 24"><defs><style>.cls-1{fill:#3d6666;}</style></defs><path class="cls-1" d="M18.54,5.37,15.73,3.12a.54.54,0,0,0-.49-.1.56.56,0,0,0-.38.32L13.8,5.81H12A3.37,3.37,0,1,0,8.21,9.72c-.09.37-.18.71-.27,1a8.71,8.71,0,0,0-.44,2.36,3.8,3.8,0,0,0,3.37,3.8v.87c-1.58.63-2.81,1.77-2.81,2.65a.56.56,0,0,0,.57.56h7.31a.56.56,0,0,0,.56-.56c0-.88-1.23-2-2.81-2.65v-.87a3.79,3.79,0,0,0,3.37-3.8,8.94,8.94,0,0,0-.45-2.43,15,15,0,0,1-.67-4.31.56.56,0,0,0-.57-.57H15l.58-1.35,2.24,1.79a.55.55,0,0,0,.79-.09A.57.57,0,0,0,18.54,5.37Zm-2.6,7.75c0,2-1.7,2.73-3.38,2.81v2.26a.57.57,0,0,0,0,.18.59.59,0,0,0,.36.35,5.45,5.45,0,0,1,2,1.16H9.61a5.51,5.51,0,0,1,2-1.16.55.55,0,0,0,.35-.35.57.57,0,0,0,0-.18V15.93c-1.68-.08-3.37-.84-3.37-2.81A8.21,8.21,0,0,1,9,11.06a16.18,16.18,0,0,0,.72-4.12h5.08A16.52,16.52,0,0,0,15.53,11,8.2,8.2,0,0,1,15.94,13.12Zm-7.31-9A2.25,2.25,0,0,1,10.8,5.81H9.19a.56.56,0,0,0-.56.57,13.35,13.35,0,0,1-.19,2.23,2.24,2.24,0,0,1,.19-4.48Z"/><path class="cls-1" d="M14.25,13.12c0,.75-.66,1.13-2,1.13s-2-.38-2-1.13A4.94,4.94,0,0,1,10.52,12h4.29l-.56-3.37h-3c0-.17.05-.33.07-.51a.57.57,0,0,0-.5-.62.56.56,0,0,0-.62.5,18.41,18.41,0,0,1-.67,3.21,7.72,7.72,0,0,0-.37,1.91c0,1.43,1.13,2.26,3.09,2.26s3.09-.83,3.09-2.26a.56.56,0,0,0-1.12,0Z"/></svg>