<svg id="Layer_1" data-name="Layer 1" xmlns="http://www.w3.org/2000/svg" viewBox="0 0 24 24"><defs><style>.cls-1{fill:#3d6666;}</style></defs><path class="cls-1" d="M17.54,6.92H6.46A.47.47,0,0,0,6,7.38v5.54a.47.47,0,0,0,.12.32,4.15,4.15,0,0,1,1.26,3.38.47.47,0,0,0,.47.46h8.3a.47.47,0,0,0,.47-.46,4.63,4.63,0,0,1,1.23-3.36.45.45,0,0,0,.15-.34V7.38A.47.47,0,0,0,17.54,6.92Zm-.46,5.81a5.37,5.37,0,0,0-1.37,3.42H8.3a4.84,4.84,0,0,0-1.38-3.41V7.85H17.08Z"/><path class="cls-1" d="M8.68,15.3a.46.46,0,0,0,.46.39h5.75a.46.46,0,0,0,.45-.38,6.69,6.69,0,0,1,.57-1.72.46.46,0,0,0-.2-.62.46.46,0,0,0-.62.21,7.33,7.33,0,0,0-.58,1.59h-5a5.87,5.87,0,0,0-1.21-2.53V11.08h7.84v-.46H8.31V9.23h2.77a.47.47,0,0,0,.46-.46.46.46,0,0,0-.46-.46H7.85a.46.46,0,0,0-.47.46V12.4a.48.48,0,0,0,.11.3A5,5,0,0,1,8.68,15.3Z"/></svg>