<svg id="Layer_1" data-name="Layer 1" xmlns="http://www.w3.org/2000/svg" viewBox="0 0 24 24"><defs><style>.cls-1{fill:#3d6666;}</style></defs><path class="cls-1" d="M13.55,17.46V13.34a5,5,0,0,0,3.73-4.75,12.49,12.49,0,0,0-1.23-5.23A.62.62,0,0,0,15.49,3h-7A.62.62,0,0,0,8,3.36,12.88,12.88,0,0,0,6.72,8.59a5,5,0,0,0,3.73,4.75v4.12c-1.75.7-3.11,1.95-3.11,2.92A.63.63,0,0,0,8,21H16a.63.63,0,0,0,.63-.62C16.66,19.41,15.3,18.16,13.55,17.46Zm-1.24,2.3H9.06a6,6,0,0,1,2.21-1.27.64.64,0,0,0,.42-.59V12.3A3.82,3.82,0,0,1,8,8.59a11.72,11.72,0,0,1,.94-4.35h6.18A11.23,11.23,0,0,1,16,8.59a3.82,3.82,0,0,1-3.72,3.71v5.6a.64.64,0,0,0,.42.59A6,6,0,0,1,15,19.76ZM8.59,8.59a9.68,9.68,0,0,1,.62-3.11h3.72V8.59a.62.62,0,1,0,1.24,0V5.48h.62a9.54,9.54,0,0,1,.62,3.11C15.41,12.56,8.59,12.89,8.59,8.59Z"/></svg>